<svg xmlns="http://www.w3.org/2000/svg">
  <symbol id="diamond-icon" viewBox="0 0 24 24">
    <path fill="none" stroke="currentColor" stroke-width="1.6" stroke-linejoin="round" d="M12 3 20 12 12 21 4 12Z"/>
    <circle cx="12" cy="14.5" r="1.3" fill="currentColor"/>
    <circle cx="15.5" cy="11" r="1.1" fill="currentColor"/>
    <circle cx="8.5" cy="11" r="1.1" fill="currentColor"/>
  </symbol>
  <symbol id="player-icon" viewBox="0 0 24 24">
    <circle cx="12" cy="7" r="4" fill="none" stroke="currentColor" stroke-width="1.6"/>
    <path fill="none" stroke="currentColor" stroke-width="1.6" stroke-linecap="round" d="M4 21c0-4.4 3.6-8 8-8s8 3.6 8 8"/>
  </symbol>
  <symbol id="bat-icon" viewBox="0 0 24 24">
    <path fill="none" stroke="currentColor" stroke-width="1.6" stroke-linecap="round" d="M6 18 17 7"/>
    <path fill="none" stroke="currentColor" stroke-width="1.6" stroke-linejoin="round" d="M15.5 5.5c1.2-1.2 3-1.2 4.2 0 1.2 1.2 1.2 3 0 4.2l-2 2-4.2-4.2Z"/>
    <path fill="none" stroke="currentColor" stroke-width="1.6" stroke-linecap="round" d="M4.5 19.5 6 18"/>
  </symbol>
  <symbol id="lock-closed-icon" viewBox="0 0 24 24">
    <rect x="5" y="11" width="14" height="10" rx="2" fill="none" stroke="currentColor" stroke-width="1.6"/>
    <path fill="none" stroke="currentColor" stroke-width="1.6" d="M8 11V8a4 4 0 0 1 8 0v3"/>
    <circle cx="12" cy="16" r="1.4" fill="currentColor"/>
  </symbol>
  <symbol id="lock-open-icon" viewBox="0 0 24 24">
    <rect x="5" y="11" width="14" height="10" rx="2" fill="none" stroke="currentColor" stroke-width="1.6"/>
    <path fill="none" stroke="currentColor" stroke-width="1.6" d="M8 11V8a4 4 0 0 1 7.6-1.8"/>
    <circle cx="12" cy="16" r="1.4" fill="currentColor"/>
  </symbol>
</svg>
